# xmcd
#
# Track frame offsets:
#	150
#	20372
#	39025
#	61252
#	78062
#	100370
#	123902
#	147485
#	161932
#	179940
#	197995
#
# Disc length: 2825 seconds
#
# Revision: 0
# Processed by: cddbd v1.5.1PL0 Copyright (c) Steve Scherf et al.
# Submitted via: dBpowerAMP V4.0
#
DISCID=960b070b
DTITLE=Broderick Smith - Suitcase
DYEAR=1992
DGENRE=Blues
TTITLE0=Snowblind Moon
TTITLE1=she held the heart
TTITLE2=someone you love
TTITLE3=tobacco road
TTITLE4=the moon and sallys eyes
TTITLE5=say a prayer
TTITLE6=salvation jane
TTITLE7=passing the pain
TTITLE8=cashing it in
TTITLE9=this town will survive
TTITLE10=love will conquer everything
EXTD=
EXTT0=
EXTT1=
EXTT2=
EXTT3=
EXTT4=
EXTT5=
EXTT6=
EXTT7=
EXTT8=
EXTT9=
EXTT10=
PLAYORDER=
